<svg width="20" height="20" viewBox="0 0 20 20" fill="none" xmlns="http://www.w3.org/2000/svg">
<path d="M14.1667 10C14.1656 10.2127 14.1172 10.4226 14.0249 10.6143C13.9327 10.806 13.7989 10.9748 13.6333 11.1083L9.38332 14.6167C9.12746 14.8217 8.81916 14.9507 8.49355 14.989C8.16793 15.0273 7.83811 14.9734 7.54166 14.8333C7.28401 14.7198 7.0645 14.5344 6.90934 14.2995C6.75418 14.0645 6.66993 13.7899 6.66666 13.5083L6.66666 6.49167C6.66993 6.21012 6.75418 5.93547 6.90934 5.70052C7.0645 5.46556 7.28401 5.28024 7.54166 5.16667C7.83811 5.02664 8.16793 4.97271 8.49355 5.01102C8.81916 5.04932 9.12746 5.17833 9.38332 5.38333L13.6333 8.89167C13.7989 9.02525 13.9327 9.19402 14.0249 9.38572C14.1172 9.57743 14.1656 9.78726 14.1667 10Z" fill="#343434"/>
</svg>
