<svg width="24" height="24" viewBox="0 0 24 24" fill="none" xmlns="http://www.w3.org/2000/svg">
<path d="M2 5.5C2 4.67188 2.67188 4 3.5 4H13.5C14.3281 4 15 4.67188 15 5.5V7H16.5844C17.1156 7 17.625 7.20937 18 7.58437L20.4156 10C20.7906 10.375 21 10.8844 21 11.4156V15C21.5531 15 22 15.4469 22 16C22 16.5531 21.5531 17 21 17H20C20 18.6562 18.6562 20 17 20C15.3438 20 14 18.6562 14 17H10C10 18.6562 8.65625 20 7 20C5.34375 20 4 18.6562 4 17H3.5C2.67188 17 2 16.3281 2 15.5V5.5ZM15 12H19V11.4156L16.5844 9H15V12ZM7 18.5C7.39782 18.5 7.77936 18.342 8.06066 18.0607C8.34196 17.7794 8.5 17.3978 8.5 17C8.5 16.6022 8.34196 16.2206 8.06066 15.9393C7.77936 15.658 7.39782 15.5 7 15.5C6.60218 15.5 6.22064 15.658 5.93934 15.9393C5.65804 16.2206 5.5 16.6022 5.5 17C5.5 17.3978 5.65804 17.7794 5.93934 18.0607C6.22064 18.342 6.60218 18.5 7 18.5ZM18.5 17C18.5 16.6022 18.342 16.2206 18.0607 15.9393C17.7794 15.658 17.3978 15.5 17 15.5C16.6022 15.5 16.2206 15.658 15.9393 15.9393C15.658 16.2206 15.5 16.6022 15.5 17C15.5 17.3978 15.658 17.7794 15.9393 18.0607C16.2206 18.342 16.6022 18.5 17 18.5C17.3978 18.5 17.7794 18.342 18.0607 18.0607C18.342 17.7794 18.5 17.3978 18.5 17ZM7.5 6.5V8H6C5.725 8 5.5 8.225 5.5 8.5V9.5C5.5 9.775 5.725 10 6 10H7.5V11.5C7.5 11.775 7.725 12 8 12H9C9.275 12 9.5 11.775 9.5 11.5V10H11C11.275 10 11.5 9.775 11.5 9.5V8.5C11.5 8.225 11.275 8 11 8H9.5V6.5C9.5 6.225 9.275 6 9 6H8C7.725 6 7.5 6.225 7.5 6.5Z" fill="#343434"/>
</svg>
