<svg width="24" height="24" viewBox="0 0 24 24" fill="none" xmlns="http://www.w3.org/2000/svg">
<path fill-rule="evenodd" clip-rule="evenodd" d="M21 7C21 8.06087 20.5786 9.07828 19.8284 9.82843C19.0783 10.5786 18.0609 11 17 11C15.9391 11 14.9217 10.5786 14.1716 9.82843C13.4214 9.07828 13 8.06087 13 7C13 5.93913 13.4214 4.92172 14.1716 4.17157C14.9217 3.42143 15.9391 3 17 3C18.0609 3 19.0783 3.42143 19.8284 4.17157C20.5786 4.92172 21 5.93913 21 7ZM19.141 7.4925C19.1112 7.62162 19.0314 7.73364 18.9191 7.80396C18.8068 7.87427 18.6712 7.89712 18.542 7.8675L15.234 7.1075C15.1047 7.0778 14.9925 6.99795 14.9221 6.88552C14.8517 6.77309 14.8288 6.63729 14.8585 6.508C14.8882 6.37871 14.9681 6.26651 15.0805 6.19609C15.1929 6.12567 15.3287 6.1028 15.458 6.1325L18.766 6.893C18.83 6.90774 18.8904 6.93494 18.9439 6.97304C18.9974 7.01115 19.0428 7.05941 19.0777 7.11508C19.1125 7.17075 19.136 7.23273 19.1469 7.29749C19.1577 7.36225 19.1557 7.42851 19.141 7.4925Z" fill="black"/>
<path d="M8.38903 4.62244C8.06553 3.85644 6.98253 3.77944 6.54803 4.49094L3.14603 10.0574C2.75353 10.6994 3.19203 11.5194 3.95753 11.5739L9.89053 11.9969C10.6555 12.0519 11.2125 11.3029 10.9205 10.6119L8.38903 4.62244Z" fill="black"/>
<path fill-rule="evenodd" clip-rule="evenodd" d="M17.6926 18.18C18.4137 17.8437 18.9717 17.2348 19.2439 16.4872C19.516 15.7395 19.4801 14.9143 19.1438 14.1932C18.8076 13.4721 18.1987 12.9141 17.451 12.6419C16.7034 12.3697 15.8782 12.4057 15.1571 12.742L9.71908 15.277C8.99789 15.6132 8.4398 16.2221 8.16759 16.9698C7.89538 17.7176 7.93135 18.5428 8.26758 19.264C8.6038 19.9852 9.21275 20.5432 9.96046 20.8154C10.7082 21.0877 11.5334 21.0517 12.2546 20.7155L17.6926 18.18ZM14.9716 18.345L17.2701 17.2735C17.7454 17.046 18.1118 16.6401 18.2896 16.144C18.4673 15.6479 18.4421 15.1017 18.2194 14.6241C17.9966 14.1465 17.5944 13.7761 17.1001 13.5934C16.6058 13.4107 16.0594 13.4305 15.5796 13.6485L13.2811 14.72L14.9711 18.345H14.9716Z" fill="black"/>
</svg>
