<svg width="24" height="24" viewBox="0 0 24 24" fill="none" xmlns="http://www.w3.org/2000/svg">
<path d="M4.94444 13.4444H10.6111C11.1306 13.4444 11.5556 13.0194 11.5556 12.5V4.94444C11.5556 4.425 11.1306 4 10.6111 4H4.94444C4.425 4 4 4.425 4 4.94444V12.5C4 13.0194 4.425 13.4444 4.94444 13.4444ZM4.94444 21H10.6111C11.1306 21 11.5556 20.575 11.5556 20.0556V16.2778C11.5556 15.7583 11.1306 15.3333 10.6111 15.3333H4.94444C4.425 15.3333 4 15.7583 4 16.2778V20.0556C4 20.575 4.425 21 4.94444 21ZM14.3889 21H20.0556C20.575 21 21 20.575 21 20.0556V12.5C21 11.9806 20.575 11.5556 20.0556 11.5556H14.3889C13.8694 11.5556 13.4444 11.9806 13.4444 12.5V20.0556C13.4444 20.575 13.8694 21 14.3889 21ZM13.4444 4.94444V8.72222C13.4444 9.24167 13.8694 9.66667 14.3889 9.66667H20.0556C20.575 9.66667 21 9.24167 21 8.72222V4.94444C21 4.425 20.575 4 20.0556 4H14.3889C13.8694 4 13.4444 4.425 13.4444 4.94444Z" fill="#343434"/>
</svg>
