<svg width="36" height="36" viewBox="0 0 36 36" fill="none" xmlns="http://www.w3.org/2000/svg">
<path d="M30.9431 23.9984C30.8264 23.8577 30.7118 23.7171 30.5993 23.5814C29.0524 21.7104 28.1166 20.5812 28.1166 15.2845C28.1166 12.5423 27.4606 10.2923 26.1675 8.60484C25.2141 7.3582 23.9253 6.4125 22.2265 5.71359C22.2046 5.70143 22.1851 5.68548 22.1689 5.66648C21.5578 3.62039 19.8858 2.25 18 2.25C16.1142 2.25 14.4429 3.62039 13.8319 5.66437C13.8156 5.68267 13.7963 5.69812 13.7749 5.71008C9.81073 7.34203 7.88417 10.473 7.88417 15.2824C7.88417 20.5812 6.94971 21.7104 5.40143 23.5793C5.28893 23.715 5.17432 23.8528 5.0576 23.9963C4.7561 24.3599 4.56508 24.8022 4.50714 25.271C4.44919 25.7398 4.52676 26.2153 4.73065 26.6414C5.16448 27.5555 6.08909 28.1229 7.14448 28.1229H28.8633C29.9138 28.1229 30.8321 27.5562 31.2673 26.6463C31.4721 26.2202 31.5504 25.7442 31.4929 25.2749C31.4355 24.8056 31.2447 24.3626 30.9431 23.9984ZM18 33.75C19.0161 33.7492 20.0129 33.4734 20.8849 32.9518C21.7569 32.4303 22.4715 31.6825 22.9528 30.7877C22.9755 30.7449 22.9867 30.6968 22.9854 30.6483C22.984 30.5999 22.9701 30.5525 22.9451 30.511C22.92 30.4695 22.8846 30.4351 22.8424 30.4113C22.8001 30.3874 22.7524 30.375 22.7039 30.375H13.2975C13.249 30.3748 13.2012 30.3872 13.1588 30.411C13.1165 30.4348 13.081 30.4691 13.0559 30.5107C13.0307 30.5523 13.0168 30.5996 13.0154 30.6482C13.014 30.6967 13.0252 30.7448 13.0479 30.7877C13.5292 31.6824 14.2437 32.4301 15.1155 32.9517C15.9874 33.4732 16.9841 33.7491 18 33.75Z" fill="#5B5B5B"/>
</svg>
