<svg width="16" height="16" viewBox="0 0 16 16" fill="none" xmlns="http://www.w3.org/2000/svg">
<path d="M8.00004 14.6667C7.07782 14.6667 6.21115 14.4916 5.40004 14.1414C4.58893 13.7912 3.88337 13.3163 3.28337 12.7167C2.68337 12.1167 2.20849 11.4112 1.85871 10.6C1.50893 9.78893 1.33382 8.92226 1.33337 8.00004C1.33337 7.07782 1.50849 6.21115 1.85871 5.40004C2.20893 4.58893 2.68382 3.88337 3.28337 3.28337C3.88337 2.68337 4.58893 2.20849 5.40004 1.85871C6.21115 1.50893 7.07782 1.33382 8.00004 1.33337C8.92226 1.33337 9.78893 1.50849 10.6 1.85871C11.4112 2.20893 12.1167 2.68382 12.7167 3.28337C13.3167 3.88337 13.7918 4.58893 14.142 5.40004C14.4923 6.21115 14.6672 7.07782 14.6667 8.00004C14.6667 8.92226 14.4916 9.78893 14.1414 10.6C13.7912 11.4112 13.3163 12.1167 12.7167 12.7167C12.1167 13.3167 11.4112 13.7918 10.6 14.142C9.78893 14.4923 8.92226 14.6672 8.00004 14.6667ZM8.00004 13.3334C9.48893 13.3334 10.75 12.8167 11.7834 11.7834C12.8167 10.75 13.3334 9.48893 13.3334 8.00004C13.3334 6.51115 12.8167 5.25004 11.7834 4.21671C10.75 3.18337 9.48893 2.66671 8.00004 2.66671C6.51115 2.66671 5.25004 3.18337 4.21671 4.21671C3.18337 5.25004 2.66671 6.51115 2.66671 8.00004C2.66671 9.48893 3.18337 10.75 4.21671 11.7834C5.25004 12.8167 6.51115 13.3334 8.00004 13.3334Z" fill="#343434"/>
</svg>
