<svg width="24" height="24" viewBox="0 0 24 24" fill="none" xmlns="http://www.w3.org/2000/svg">
<path d="M8.85873 3.57692C8.85873 3.42391 8.79103 3.27717 8.67053 3.16898C8.55002 3.06078 8.38658 3 8.21616 3C8.04574 3 7.88229 3.06078 7.76179 3.16898C7.64128 3.27717 7.57358 3.42391 7.57358 3.57692V4.79231C6.33983 4.88077 5.53105 5.09769 4.93645 5.63231C4.34099 6.16615 4.09939 6.89308 4 8H21C20.9006 6.89231 20.659 6.16615 20.0636 5.63231C19.469 5.09769 18.6593 4.88077 17.4264 4.79154V3.57692C17.4264 3.42391 17.3587 3.27717 17.2382 3.16898C17.1177 3.06078 16.9543 3 16.7838 3C16.6134 3 16.45 3.06078 16.3295 3.16898C16.209 3.27717 16.1413 3.42391 16.1413 3.57692V4.74077C15.5715 4.73077 14.9324 4.73077 14.2135 4.73077H10.7865C10.0676 4.73077 9.42849 4.73077 8.85873 4.74077V3.57692Z" fill="#343434"/>
<path fill-rule="evenodd" clip-rule="evenodd" d="M4 11.8367C4 11.1518 4 10.5429 4.01105 10H20.989C21 10.5429 21 11.1518 21 11.8367V13.4694C21 16.5478 21 18.0873 20.0038 19.0433C19.0084 20 17.4054 20 14.2 20H10.8C7.59465 20 5.99155 20 4.9962 19.0433C4 18.0873 4 16.5478 4 13.4694V11.8367ZM16.75 13.4694C16.9754 13.4694 17.1916 13.3834 17.351 13.2303C17.5104 13.0772 17.6 12.8696 17.6 12.6531C17.6 12.4366 17.5104 12.2289 17.351 12.0758C17.1916 11.9227 16.9754 11.8367 16.75 11.8367C16.5246 11.8367 16.3084 11.9227 16.149 12.0758C15.9896 12.2289 15.9 12.4366 15.9 12.6531C15.9 12.8696 15.9896 13.0772 16.149 13.2303C16.3084 13.3834 16.5246 13.4694 16.75 13.4694ZM16.75 16.7347C16.9754 16.7347 17.1916 16.6487 17.351 16.4956C17.5104 16.3425 17.6 16.1349 17.6 15.9184C17.6 15.7019 17.5104 15.4942 17.351 15.3411C17.1916 15.188 16.9754 15.102 16.75 15.102C16.5246 15.102 16.3084 15.188 16.149 15.3411C15.9896 15.4942 15.9 15.7019 15.9 15.9184C15.9 16.1349 15.9896 16.3425 16.149 16.4956C16.3084 16.6487 16.5246 16.7347 16.75 16.7347ZM13.35 12.6531C13.35 12.8696 13.2604 13.0772 13.101 13.2303C12.9416 13.3834 12.7254 13.4694 12.5 13.4694C12.2746 13.4694 12.0584 13.3834 11.899 13.2303C11.7396 13.0772 11.65 12.8696 11.65 12.6531C11.65 12.4366 11.7396 12.2289 11.899 12.0758C12.0584 11.9227 12.2746 11.8367 12.5 11.8367C12.7254 11.8367 12.9416 11.9227 13.101 12.0758C13.2604 12.2289 13.35 12.4366 13.35 12.6531ZM13.35 15.9184C13.35 16.1349 13.2604 16.3425 13.101 16.4956C12.9416 16.6487 12.7254 16.7347 12.5 16.7347C12.2746 16.7347 12.0584 16.6487 11.899 16.4956C11.7396 16.3425 11.65 16.1349 11.65 15.9184C11.65 15.7019 11.7396 15.4942 11.899 15.3411C12.0584 15.188 12.2746 15.102 12.5 15.102C12.7254 15.102 12.9416 15.188 13.101 15.3411C13.2604 15.4942 13.35 15.7019 13.35 15.9184ZM8.25 13.4694C8.47543 13.4694 8.69163 13.3834 8.85104 13.2303C9.01045 13.0772 9.1 12.8696 9.1 12.6531C9.1 12.4366 9.01045 12.2289 8.85104 12.0758C8.69163 11.9227 8.47543 11.8367 8.25 11.8367C8.02457 11.8367 7.80837 11.9227 7.64896 12.0758C7.48955 12.2289 7.4 12.4366 7.4 12.6531C7.4 12.8696 7.48955 13.0772 7.64896 13.2303C7.80837 13.3834 8.02457 13.4694 8.25 13.4694ZM8.25 16.7347C8.47543 16.7347 8.69163 16.6487 8.85104 16.4956C9.01045 16.3425 9.1 16.1349 9.1 15.9184C9.1 15.7019 9.01045 15.4942 8.85104 15.3411C8.69163 15.188 8.47543 15.102 8.25 15.102C8.02457 15.102 7.80837 15.188 7.64896 15.3411C7.48955 15.4942 7.4 15.7019 7.4 15.9184C7.4 16.1349 7.48955 16.3425 7.64896 16.4956C7.80837 16.6487 8.02457 16.7347 8.25 16.7347Z" fill="#343434"/>
</svg>
