<svg width="24" height="24" viewBox="0 0 24 24" fill="none" xmlns="http://www.w3.org/2000/svg">
<path fill-rule="evenodd" clip-rule="evenodd" d="M5.04178 4.0548C4 5.1087 4 6.8061 4 10.2V13.8C4 17.1939 4 18.8913 5.04178 19.9452C6.08267 21 7.75911 21 11.1111 21H12.8889C16.2409 21 17.9173 21 18.9582 19.9452C20 18.8913 20 17.1939 20 13.8V10.2C20 6.8061 20 5.1087 18.9582 4.0548C17.9173 3 16.2409 3 12.8889 3H11.1111C7.75911 3 6.08267 3 5.04178 4.0548ZM12.6667 6.6C12.6667 6.42098 12.5964 6.24929 12.4714 6.1227C12.3464 5.99612 12.1768 5.925 12 5.925C11.8232 5.925 11.6536 5.99612 11.5286 6.1227C11.4036 6.24929 11.3333 6.42098 11.3333 6.6V7.725H10.2222C10.0454 7.725 9.87584 7.79612 9.75082 7.9227C9.62579 8.04929 9.55556 8.22098 9.55556 8.4C9.55556 8.57902 9.62579 8.75071 9.75082 8.8773C9.87584 9.00388 10.0454 9.075 10.2222 9.075H11.3333V10.2C11.3333 10.379 11.4036 10.5507 11.5286 10.6773C11.6536 10.8039 11.8232 10.875 12 10.875C12.1768 10.875 12.3464 10.8039 12.4714 10.6773C12.5964 10.5507 12.6667 10.379 12.6667 10.2V9.075H13.7778C13.9546 9.075 14.1242 9.00388 14.2492 8.8773C14.3742 8.75071 14.4444 8.57902 14.4444 8.4C14.4444 8.22098 14.3742 8.04929 14.2492 7.9227C14.1242 7.79612 13.9546 7.725 13.7778 7.725H12.6667V6.6ZM8.44444 13.125C8.26763 13.125 8.09806 13.1961 7.97304 13.3227C7.84802 13.4493 7.77778 13.621 7.77778 13.8C7.77778 13.979 7.84802 14.1507 7.97304 14.2773C8.09806 14.4039 8.26763 14.475 8.44444 14.475H15.5556C15.7324 14.475 15.9019 14.4039 16.027 14.2773C16.152 14.1507 16.2222 13.979 16.2222 13.8C16.2222 13.621 16.152 13.4493 16.027 13.3227C15.9019 13.1961 15.7324 13.125 15.5556 13.125H8.44444ZM9.33333 16.725C9.15652 16.725 8.98695 16.7961 8.86193 16.9227C8.7369 17.0493 8.66667 17.221 8.66667 17.4C8.66667 17.579 8.7369 17.7507 8.86193 17.8773C8.98695 18.0039 9.15652 18.075 9.33333 18.075H14.6667C14.8435 18.075 15.013 18.0039 15.1381 17.8773C15.2631 17.7507 15.3333 17.579 15.3333 17.4C15.3333 17.221 15.2631 17.0493 15.1381 16.9227C15.013 16.7961 14.8435 16.725 14.6667 16.725H9.33333Z" fill="black"/>
</svg>
