<svg width="24" height="24" viewBox="0 0 24 24" fill="none" xmlns="http://www.w3.org/2000/svg">
<path fill-rule="evenodd" clip-rule="evenodd" d="M21.3879 9.00373C21.3342 9 21.2746 9 21.2121 9H18.7466C16.7273 9 15 10.5195 15 12.5C15 14.4805 16.7283 16 18.7466 16H21.2121C21.2746 16 21.3342 16 21.3898 15.9963C21.8049 15.9723 22.1966 15.805 22.4921 15.5255C22.7877 15.2459 22.9668 14.8732 22.9961 14.4768C23 14.4208 23 14.3601 23 14.3041V10.6959C23 10.6399 23 10.5792 22.9961 10.5232C22.9668 10.1268 22.7877 9.75407 22.4921 9.47452C22.1966 9.19497 21.8049 9.02765 21.3898 9.00373H21.3879ZM18.5289 13.4333C19.0483 13.4333 19.4692 13.0152 19.4692 12.5C19.4692 11.9848 19.0483 11.5667 18.5289 11.5667C18.0084 11.5667 17.5876 11.9848 17.5876 12.5C17.5876 13.0152 18.0084 13.4333 18.5289 13.4333Z" fill="#343434"/>
<path fill-rule="evenodd" clip-rule="evenodd" d="M20.7729 17.6C20.8072 17.5987 20.8414 17.6052 20.8726 17.6192C20.9038 17.6332 20.9312 17.6542 20.9526 17.6806C20.9739 17.7069 20.9887 17.7377 20.9956 17.7707C21.0024 17.8036 21.0013 17.8376 20.9922 17.8701C20.7938 18.5617 20.4772 19.1523 19.9701 19.6478C19.2269 20.3763 18.2851 20.6979 17.1221 20.8514C15.9909 21 14.547 21 12.7231 21H10.6273C8.80342 21 7.35859 21 6.22832 20.8514C5.06531 20.6979 4.12359 20.3754 3.38033 19.6487C2.63807 18.9211 2.30862 17.9993 2.15183 16.8607C2 15.7533 2 14.3399 2 12.5544V12.4456C2 10.6601 2 9.24571 2.15183 8.13829C2.30862 6.99977 2.63807 6.07789 3.38033 5.35029C4.12359 4.62366 5.06531 4.30114 6.22832 4.14766C7.35958 4 8.80342 4 10.6273 4H12.7231C14.547 4 15.9919 4 17.1221 4.14863C18.2851 4.30211 19.2269 4.62463 19.9701 5.35126C20.4772 5.84863 20.7938 6.43829 20.9922 7.12994C21.0013 7.16236 21.0024 7.19641 20.9956 7.22934C20.9887 7.26227 20.9739 7.29314 20.9526 7.31945C20.9312 7.34576 20.9038 7.36677 20.8726 7.38076C20.8414 7.39476 20.8072 7.40135 20.7729 7.4H18.2683C15.453 7.4 12.9722 9.576 12.9722 12.5C12.9722 15.424 15.453 17.6 18.2683 17.6H20.7729ZM5.72124 7.88571C5.52386 7.88571 5.33455 7.96247 5.19498 8.09911C5.05541 8.23574 4.97699 8.42106 4.97699 8.61429C4.97699 8.80751 5.05541 8.99283 5.19498 9.12946C5.33455 9.2661 5.52386 9.34286 5.72124 9.34286H9.69057C9.88795 9.34286 10.0773 9.2661 10.2168 9.12946C10.3564 8.99283 10.4348 8.80751 10.4348 8.61429C10.4348 8.42106 10.3564 8.23574 10.2168 8.09911C10.0773 7.96247 9.88795 7.88571 9.69057 7.88571H5.72124Z" fill="#343434"/>
</svg>
