<svg xmlns="http://www.w3.org/2000/svg" viewBox="0 0 512 512"><defs><style>.cls-1{fill:#0081ff;}.cls-2{fill:#fff;}</style></defs><rect class="cls-1" width="512" height="512" rx="25"/><path class="cls-2" d="M127.84,225.33V173.66a20.14,20.14,0,0,1,20.14-20.14h216.04a20.14,20.14,0,0,1,20.14,20.14v51.67a20.14,20.14,0,0,1-20.14,20.14H347.31v-20.77h10.38a6.01,6.01,0,0,0,6.01-6.01V180.28a6.01,6.01,0,0,0-6.01-6.01H154.31a6.01,6.01,0,0,0-6.01,6.01v38.41a6.01,6.01,0,0,0,6.01,6.01h10.38v20.77H147.97A20.14,20.14,0,0,1,127.84,225.33Z"/><path class="cls-2" d="M190.86,338.48V286.81a20.14,20.14,0,0,0-20.14-20.14H154.31a6.01,6.01,0,0,1-6.01-6.01V245.47h10.38a20.14,20.14,0,0,0,20.14-20.14H333.17a20.14,20.14,0,0,0,20.14,20.14h10.38v15.19a6.01,6.01,0,0,1-6.01,6.01H341.29a20.14,20.14,0,0,0-20.14,20.14v51.67a20.14,20.14,0,0,0,20.14,20.14h16.39a6.01,6.01,0,0,1,6.01,6.01v15.19H353.3a20.14,20.14,0,0,0-20.14-20.14H178.83a20.14,20.14,0,0,0-20.14,20.14H148.31v-15.19a6.01,6.01,0,0,1,6.01-6.01h16.39A20.14,20.14,0,0,0,190.86,338.48Z"/></svg>
