<svg xmlns="http://www.w3.org/2000/svg" viewBox="0 0 512 512"><defs><style>.cls-1{fill:#00aed6;}.cls-2{fill:#fff;}</style></defs><rect class="cls-1" width="512" height="512" rx="25"/><path class="cls-2" d="M341.38,143.86c-42.21,0-74.67,32.46-74.67,74.67s32.46,74.67,74.67,74.67,74.67-32.46,74.67-74.67S383.59,143.86,341.38,143.86Zm0,115.41c-22.45,0-40.74-18.28-40.74-40.74s18.28-40.74,40.74-40.74,40.74,18.28,40.74,40.74S363.84,259.27,341.38,259.27Z"/><path class="cls-2" d="M149.69,182.91h60.17v-37.72H149.69c-42.21,0-76.44,34.23-76.44,76.44v59.76c0,42.21,34.23,76.44,76.44,76.44h60.17v-37.72H149.69c-21.36,0-38.72-17.37-38.72-38.72v-59.76C110.97,200.28,128.33,182.91,149.69,182.91Z"/><rect class="cls-2" x="175.94" y="219.19" width="33.92" height="33.92"/><rect class="cls-2" x="175.94" y="269.36" width="33.92" height="33.92"/></svg>
