<svg xmlns="http://www.w3.org/2000/svg" viewBox="0 0 750 471"><defs><style>.cls-1{fill:#fff;}.cls-2{fill:#6c2c2f;}.cls-3{fill:#0e4c96;}.cls-4{fill:#dfa43b;}.cls-5{fill:#eb6c1c;}.cls-6{fill:#97161b;}</style></defs><rect class="cls-1" x="0.5" y="0.5" width="749" height="470" rx="40"/><path class="cls-2" d="M723.5,471h-697a40.54,40.54,0,0,1-40.5-40.5V40.5A40.54,40.54,0,0,1,26.5,0h697A40.54,40.54,0,0,1,764,40.5v390A40.54,40.54,0,0,1,723.5,471ZM26.5,1A39.54,39.54,0,0,0-13,40.5v390A39.54,39.54,0,0,0,26.5,470h697A39.54,39.54,0,0,0,763,430.5V40.5A39.54,39.54,0,0,0,723.5,1Z"/><path class="cls-3" d="M246.62,203.77a39.55,39.55,0,0,0-39.56,39.56V294a39.23,39.23,0,0,0,16.52,31.93,39.43,39.43,0,0,0,23,7.61h57.17v-40h-46a6.67,6.67,0,0,1-6.67-6.67V203.77Z"/><path class="cls-4" d="M396.87,210.83a39.42,39.42,0,0,0-23-7.6H312.64v39.95H362.1a6.67,6.67,0,0,1,6.67,6.67v0h0V294a39.55,39.55,0,0,0,39.56,39.56h1.86V243.31A39.24,39.24,0,0,0,396.87,210.83Z"/><path class="cls-5" d="M443,137a38.91,38.91,0,0,0-16.13-3.5H342.19v40h65.54a6.77,6.77,0,0,1,6.77,6.77v20h0a39.56,39.56,0,0,1,39.57-39.56v-7.67A39.53,39.53,0,0,0,443,137Z"/><path class="cls-6" d="M293.31,137a38.91,38.91,0,0,0-16.13-3.5H192.5v40H258a6.77,6.77,0,0,1,6.77,6.77v20h0a39.56,39.56,0,0,1,39.57-39.56v-7.67A39.53,39.53,0,0,0,293.31,137Z"/></svg>
