<svg xmlns="http://www.w3.org/2000/svg" viewBox="0 0 131.39 86.9"><defs><style>.a{opacity:0;}.b{fill:#fff;}.c{fill:#ff5f00;}.d{fill:#eb001b;}.e{fill:#f79e1b;}</style></defs><g class="a"><rect class="b" width="131.39" height="86.9"/></g><rect class="c" x="48.37" y="15.14" width="34.66" height="56.61"/><path class="d" d="M51.94,43.45a35.94,35.94,0,0,1,13.75-28.3,36,36,0,1,0,0,56.61A35.94,35.94,0,0,1,51.94,43.45Z"/><path class="e" d="M120.5,65.76V64.6H121v-.24h-1.19v.24h.47v1.16Zm2.31,0v-1.4h-.36l-.42,1-.42-1h-.36v1.4h.26V64.7l.39.91h.27l.39-.91v1.06Zm-70.17,6.53h0a.55.55,0,0,1,.24,0,.59.59,0,0,1,.19.15.67.67,0,0,1,.13.22.83.83,0,0,1,0,.29.8.8,0,0,1,0,.28.67.67,0,0,1-.13.22.59.59,0,0,1-.19.15.62.62,0,0,1-.24,0,.61.61,0,0,1-.24,0,.59.59,0,0,1-.19-.15.67.67,0,0,1-.13-.22.8.8,0,0,1,0-.28.83.83,0,0,1,0-.29.67.67,0,0,1,.13-.22.59.59,0,0,1,.19-.15.53.53,0,0,1,.24,0Zm0-.3a.94.94,0,0,0-.36.07.87.87,0,0,0-.29.2,1,1,0,0,0-.19.3,1.1,1.1,0,0,0-.07.39,1.05,1.05,0,0,0,.07.38,1,1,0,0,0,.19.3.87.87,0,0,0,.29.2.94.94,0,0,0,.36.07.94.94,0,0,0,.36-.07.87.87,0,0,0,.29-.2.1.1,0,0,0,.19-.3,1.05,1.05,0,0,0,.07-.38,1.1,1.1,0,0,0-.07-.39,1,1,0,0,0-.19-.3.87.87,0,0,0-.29-.2.92.92,0,0,0-.36-.07Zm0,1.09h0a.3.3,0,0,1-.17,0,.17.17,0,0,1-.07-.09.24.24,0,0,1,0-.12.23.23,0,0,1,0-.11.17.17,0,0,1,.06-.08.31.31,0,0,1,.16,0h.09A.18.18,0,0,1,52.7,73a.13.13,0,0,1,0,.1.12.12,0,0,1,0,.08.22.22,0,0,1-.11,0Zm0-.28h-.09a.11.11,0,0,0-.07,0,.06.06,0,0,0,0,.05.06.06,0,0,0,0,.05.11.11,0,0,0,.07,0h.09Zm0-.21h-.13a.22.22,0,0,0-.1,0,.25.25,0,0,0-.08.06.25.25,0,0,0,0,.09.2.2,0,0,0,0,.08.18.18,0,0,0,0,.06.15.15,0,0,0,.06,0,.22.22,0,0,0-.07,0,.13.13,0,0,0,0,.09.14.14,0,0,0,0,.09.2.2,0,0,0,.08,0h.3v-.54Zm102.41.49h0a.53.53,0,0,1-.24,0,.59.59,0,0,1-.19-.15.67.67,0,0,1-.13-.22.8.8,0,0,1,0-.28.83.83,0,0,1,0-.29.67.67,0,0,1,.13-.22.59.59,0,0,1,.19-.15.55.55,0,0,1,.24,0,.59.59,0,0,1,.24,0,.55.55,0,0,1,.19.15.62.62,0,0,1,.13.22.83.83,0,0,1,0,.29.8.8,0,0,1,0,.28.62.62,0,0,1-.13.22.55.55,0,0,1-.19.15.59.59,0,0,1-.24,0Zm0,.3h0a.94.94,0,0,0,.36-.07.87.87,0,0,0,.29-.2,1,1,0,0,0,.19-.3,1.05,1.05,0,0,0,.07-.38,1.1,1.1,0,0,0-.07-.39,1,1,0,0,0-.19-.3.87.87,0,0,0-.29-.2.94.94,0,0,0-.36-.07.94.94,0,0,0-.36.07.91.91,0,0,0-.3.2,1,1,0,0,0-.19.3,1.1,1.1,0,0,0-.07.39,1.05,1.05,0,0,0,.07.38,1,1,0,0,0,.19.3.91.91,0,0,0,.3.2.94.94,0,0,0,.36.07Zm0-1.09h0a.31.31,0,0,1,.17,0,.17.17,0,0,1,.06.08.24.24,0,0,1,0,.11.22.22,0,0,1,0,.12.17.17,0,0,1-.06.09.31.31,0,0,1-.17,0H155a.23.23,0,0,1-.12,0,.16.16,0,0,1-.06-.08.16.16,0,0,1,0-.1.13.13,0,0,1,0-.1.16.16,0,0,1,.06-.08.25.25,0,0,1,.12,0Zm0,.28h.09a.11.11,0,0,0,.06,0,.1.1,0,0,0,0-.05.08.08,0,0,0,0-.05.11.11,0,0,0-.07,0h-.09a.12.12,0,0,0-.07,0,.08.08,0,0,0,0,0,.07.07,0,0,0,0,.05.12.12,0,0,0,.07,0Zm0,.21h.13a.24.24,0,0,0,.11,0,.11.11,0,0,0,.08-.06.2.2,0,0,0,0-.09.15.15,0,0,0,0-.08.16.16,0,0,0-.05-.06.25.25,0,0,0-.1,0h-.13a.24.24,0,0,0-.11,0,.22.22,0,0,0-.08.06.15.15,0,0,0,0,.08.2.2,0,0,0,0,.09.23.23,0,0,0,.08.06.26.26,0,0,0,.11,0Zm-77.67-7a6.81,6.81,0,0,0,2.68.56c2.92,0,4.74-1.87,4.74-4.2,0-1.42-.82-2.7-2.6-3.71a7.11,7.11,0,0,1-1.71-1.14c-.48-.45-.62-.85-.62-1.21,0-.59.45-1.23,1.32-1.23a3.76,3.76,0,0,1,1.8.56l.34-.93a4.28,4.28,0,0,0-2.13-.56c-2.07,0-3.92,1.35-3.92,3.57,0,1.14.66,2.21,2.63,3.37a6.92,6.92,0,0,1,1.72,1.25c.46.41.63.9.63,1.44,0,1-.78,1.87-2.07,1.87a4.68,4.68,0,0,1-2.32-.7Zm-9.31.52H67l3.37-8.88h-1.2l-2.7,7.32-2.68-7.32H62.63l3.35,8.88ZM58.06,59.9l-.37-.93a5.42,5.42,0,0,1-2.1.5c-1.33,0-2.16-.64-2.16-1.65,0-.31.2-1.18,2.7-1.18h1.37v-.42c0-.63-.41-1-1.47-1a4.55,4.55,0,0,0-1.82.48l-.33-.89a5.68,5.68,0,0,1,2.34-.6c1.77,0,2.47.82,2.47,2v4.41a9.72,9.72,0,0,0,.08,1.34H58c-.07-.21-.1-.69-.1-1,0,0,0-.08,0-.15Zm-.66-2.36H56.16c-1.35,0-1.69.37-1.69.81,0,.49.43.85,1.3.85a2.48,2.48,0,0,0,1.63-.7Zm11.3,2.36-.37-.93a5.42,5.42,0,0,1-2.1.5c-1.33,0-2.16-.64-2.16-1.65,0-.31.2-1.18,2.7-1.18h1.37v-.42c0-.63-.41-1-1.47-1a4.55,4.55,0,0,0-1.82.48l-.33-.89a5.68,5.68,0,0,1,2.34-.6c1.77,0,2.47.82,2.47,2v4.41a9.72,9.72,0,0,0,.08,1.34h-.81c-.07-.21-.1-.69-.1-1,0,0,0-.08,0-.15Zm-.66-2.36H66.8c-1.35,0-1.69.37-1.69.81,0,.49.43.85,1.3.85a2.48,2.48,0,0,0,1.63-.7Zm64.74,2.36V54.16h1.33a10.32,10.32,0,0,0,1.32,0V59.9Zm-4.06,0V54.16h1.09a11.2,11.2,0,0,0,1.32,0v.87a3.21,3.21,0,0,1,2.64-1.14c1.81,0,2.83,1.18,2.83,3.33V59.9h-1.09c-.3,0-.89,0-1.33,0V57.69c0-1.29-.44-1.93-1.5-1.93a2.24,2.24,0,0,0-1.82,1.22V59.9Zm-4.58,0V54.16h1.09a10.36,10.36,0,0,0,1.33,0V59.9Zm-3.95,0h-1.1a11.74,11.74,0,0,0-1.32,0V51h1.09a10.42,10.42,0,0,0,1.33,0Zm-8.06,0V54.16h1.09a11.2,11.2,0,0,0,1.32,0v.87a3.21,3.21,0,0,1,2.64-1.14c1.81,0,2.83,1.18,2.83,3.33V59.9h-1.09c-.3,0-.89,0-1.33,0V57.69c0-1.29-.44-1.93-1.5-1.93a2.24,2.24,0,0,0-1.82,1.22V59.9Zm-5.69-8.88,3.32,8.88h1.07c.39,0,.92,0,1.28,0L114,51h-1.1a9.46,9.46,0,0,0-1.28,0l-2.22,6.18-2.16-6.18h-1.17a12.71,12.71,0,0,0-1.32,0l2.26,6.21-1,2.65a2.59,2.59,0,0,1-2,1.82c.06.18.24.65.38.9a3.69,3.69,0,0,0,2.46-2.11Zm34.53,8.88V51h1.09a10.36,10.36,0,0,0,1.33,0v8.88Zm-73.52,0V51h4.41c2.49,0,4.12,1.45,4.12,3.74s-1.65,3.86-4.15,3.86h-2.14V59.9H67a10.36,10.36,0,0,0-1.32,0Zm2.24-3.19h2.15c1.36,0,2.11-.82,2.11-2s-.73-1.8-2.11-1.8H69.87Zm47.49,3.19H116a9.46,9.46,0,0,0-1.28,0V51h3.68c2.94,0,4.42,1.63,4.42,4.4,0,3-1.7,4.49-4.48,4.49Zm.06-1h.74c1.89,0,2.71-1,2.71-3.45,0-2.26-1-3.3-2.77-3.3h-.68Z"/><path class="e" d="M120.5,43.45a36.07,36.07,0,0,1-58.05,28.3,36.09,36.09,0,0,0,0-56.61A36.07,36.07,0,0,1,120.5,43.45Z"/></svg>
