<svg xmlns="http://www.w3.org/2000/svg" viewBox="0 0 600 223.89"><defs><style>.cls-1{fill:#ed1c2e;}.cls-2{fill:#231f20;}</style></defs><path class="cls-1" d="M145.87,39.33H71.42l-16,37.12h74.45Z"/><path class="cls-1" d="M177.85,39.33l-16,37.12H297.65l16-37.12Z"/><path class="cls-1" d="M322.84,39.33l-16,37.12H442.64l16-37.12Z"/><path class="cls-1" d="M467.83,39.33l-16,37.12h74.45l16-37.12Z"/><path class="cls-1" d="M71.42,87.56,55.46,124.67H129.9l16-37.11Z"/><path class="cls-2" d="M145.87,87.56l-16,37.11H265.67l16-37.11Z"/><path class="cls-2" d="M290.86,87.56l-16,37.11H410.66l16-37.11Z"/><path class="cls-2" d="M435.85,87.56l-16,37.11h74.44l16-37.11Z"/><path class="cls-1" d="M39.47,135.78,23.51,172.9H98l16-37.12Z"/><path class="cls-1" d="M113.92,135.78l-16,37.12H233.72l16-37.12Z"/><path class="cls-1" d="M258.91,135.78l-16,37.12H378.71l16-37.12Z"/><path class="cls-1" d="M403.9,135.78l-16,37.12h135.8l16-37.12Z"/><path class="cls-2" d="M168.88,223.89a40.39,40.39,0,0,1-15.81-3.17,40.92,40.92,0,0,1-12.85-8.59,41.55,41.55,0,0,1-8.6-12.85,40.18,40.18,0,0,1-3.17-15.81,40.21,40.21,0,0,1,3.17-15.82,41.66,41.66,0,0,1,8.6-12.84,40.82,40.82,0,0,1,12.85-8.6,40.41,40.41,0,0,1,15.81-3.17,40.39,40.39,0,0,1,15.81,3.17,41,41,0,0,1,12.85,8.6,41.66,41.66,0,0,1,8.6,12.84,40.41,40.41,0,0,1,3.17,15.82,40.38,40.38,0,0,1-3.17,15.81,41.55,41.55,0,0,1-8.6,12.85,41.06,41.06,0,0,1-12.85,8.59A40.37,40.37,0,0,1,168.88,223.89Zm0-63.5A25.13,25.13,0,0,0,168.88,224a25.14,25.14,0,0,0,0-63.58Z"/><path class="cls-2" d="M244.18,223.89a40.37,40.37,0,0,1-15.81-3.17,41.06,41.06,0,0,1-12.85-8.59,41.55,41.55,0,0,1-8.6-12.85,40.38,40.38,0,0,1-3.17-15.81,40.41,40.41,0,0,1,3.17-15.82,41.66,41.66,0,0,1,8.6-12.84,41,41,0,0,1,12.85-8.6,40.39,40.39,0,0,1,15.81-3.17A40.37,40.37,0,0,1,260,146.21a41,41,0,0,1,12.85,8.6,41.66,41.66,0,0,1,8.6,12.84,40.41,40.41,0,0,1,3.17,15.82,40.38,40.38,0,0,1-3.17,15.81,41.55,41.55,0,0,1-8.6,12.85A41.06,41.06,0,0,1,260,220.72,40.36,40.36,0,0,1,244.18,223.89Zm0-63.5A25.13,25.13,0,0,0,244.18,224a25.14,25.14,0,0,0,0-63.58Z"/><path class="cls-2" d="M340.47,144.41v73.41a7.3,7.3,0,0,1-.83,3.45,8.33,8.33,0,0,1-2.21,2.63,9.72,9.72,0,0,1-3.17,1.66,12.77,12.77,0,0,1-3.73.55H320.3V144.41h-18V143.9q0-9.22,8.33-9.23h39.55q9.21,0,9.23,9.23v.51Z"/><path class="cls-2" d="M428.79,223.89a39.65,39.65,0,0,1-15.81-3.17,40.68,40.68,0,0,1-12.85-8.74,40.69,40.69,0,0,1-8.74-12.85A39.65,39.65,0,0,1,388.22,183h0V143.55h20.26v38.49a20.3,20.3,0,1,0,40.61,0V143.55h18.93v38.49h0a39.65,39.65,0,0,1-3.17,15.81,40.69,40.69,0,0,1-8.74,12.85,40.68,40.68,0,0,1-12.85,8.74A39.65,39.65,0,0,1,428.79,223.89Z"/></svg>
