<svg xmlns="http://www.w3.org/2000/svg" viewBox="0 0 1000 324.68"><defs><style>.a{fill:#00579f;}.b{fill:#faa61a;}</style></defs><polygon class="a" points="651.17 0.31 568.22 324.37 469.05 324.37 552.18 0.31 651.17 0.31"/><path class="a" d="M961.67,330.81C1000,301.81,1000,257.33,999.68,240c0-82-71.3-148.67-158.51-148.67-99.3,0-167.67,75.48-167.67,148.52,0,131.94,146.63,142.33,227.93,85Z" transform="translate(0 -92.14)"/><path class="b" d="M914.55,416.69h-97.5L875.22,92.14h97.5Z" transform="translate(0 -92.14)"/><path class="a" d="M371.92,92.45H275.58a37.9,37.9,0,0,0-42,31l-122,284.76h97.66s14.12-37.87,17.28-46.13H354c2.44,10.78,9.92,46.13,9.92,46.13H454.8Zm-94.6,191.52c7-17.9,33.52-85.54,33.52-85.54s7-18.55,11.25-30.61l5.83,26.94s16.13,74.28,19.52,89.21Z" transform="translate(0 -92.14)"/><path class="b" d="M217.13,92.46,124,243.48,84.18,138.32,62.33,222.69,0,92.45H94.86L129.35,190l73.8-97.58Z" transform="translate(0 -92.14)"/></svg>
