<?xml version="1.0" encoding="utf-8"?>
<!-- Generator: Adobe Illustrator 19.2.1, SVG Export Plug-In . SVG Version: 6.00 Build 0)  -->
<svg version="1.1" id="layer" xmlns="http://www.w3.org/2000/svg" xmlns:xlink="http://www.w3.org/1999/xlink" x="0px" y="0px"
	 viewBox="0 0 652 652" style="enable-background:new 0 0 652 652;" xml:space="preserve">
<style type="text/css">
	.st0{fill:#00A76D;}
</style>
<path d="M20.7,282.3h17.1v6.6c2.7-2.9,8.5-8.8,19.6-8.8c21.1,0,32.6,18.9,32.6,38.7c0,21.4-13.4,37.3-32.6,37.3
	c-9.9,0-16.1-4.7-19.6-8v35.2H20.7V282.3z M55.2,340c8.3,0,17.4-5.7,17.4-22c0-17.9-12.5-21.4-17.6-21.4c-7.9,0-16.9,5.7-17.2,21.1
	C37.4,332.5,45.6,340,55.2,340"/>
<path d="M115.4,252.7v36.9c5.4-5.4,12.9-9.5,22.8-9.5c8.9,0,15.8,3.4,19.7,7.8c5.9,6.3,6,13.6,6,21.8V354h-16.9v-39.5
	c-0.3-6.5-0.3-8-1.1-10.2c-0.6-1.4-3-7.9-12.5-7.9c-11,0-16.2,8.9-17.4,13.1c-0.6,2.3-0.6,3.4-0.6,11.5v33H98.1V252.7H115.4z"/>
<path d="M176.1,303.4c0.3-3.6,0.6-6.6,2.9-10.8c6.9-12.5,23.9-12.5,28.5-12.5c6.9,0,15.2,0.9,21.5,4.6c8.5,5.2,8.6,11.9,8.6,19.6v38
	c0,5.5,0,7.3,3.2,11.6h-20.4c-0.1-1.7-0.4-4.6-0.4-5.6c-3.7,3.1-11.3,7.3-21.2,7.3c-16.2,0-26-10-26-22.4c0-3.6,0.9-6.9,2.3-9.8
	c5.2-10.3,16.2-12.6,23.1-13.9c14.8-3,15.9-3.3,22.2-5.3c0-3.6-0.3-10.9-12.2-10.9c-7.2,0-11,2.3-12.8,4.6c-1.9,2.3-1.7,4.3-1.7,6.3
	L176.1,303.4z M220.4,318.3c-3.4,1.7-7.3,3-15.1,4.3c-6.2,0.9-14.3,2.3-14.3,9.9c0,5.6,4.7,8.5,11.6,8.5c8.8,0,14.9-4,16.8-8.3
	c1-2.1,1-4.3,1-6.4V318.3z"/>
<path d="M266.8,282.3v10.2c2.2-3.7,6.9-12.2,23-11.8v17.6c-3.7,0.1-10.2,0.3-15.5,4.3c-7.3,5.6-7.5,12.9-7.5,24.8V354h-16.6v-71.7
	H266.8z"/>
<path d="M299,282.3h17.1v8c5.7-7.2,15.9-10.2,22.7-10.2c6.7,0,15.2,2.6,19.9,11.1c2.9-4,10.3-11.1,23-11.1c7.2,0,14.1,2,18.9,7.3
	c5.7,6.3,5.6,13.9,5.6,21.4V354h-17.1v-39.6c0-6.7,1-18.1-12.1-18.1c-5.4,0-9.9,3-12.2,6.7c-3.3,5.3-3.7,11-3.7,17.2V354h-17.1v-40
	c0-5.2,0-7-0.6-9.2c-1.3-4.7-5-8.5-11-8.5c-5.2,0-10.2,3-13.2,8.3c-3,5.6-3.2,12.3-3.2,19.4v30H299V282.3z"/>
<path d="M416.6,303.4c0.3-3.6,0.6-6.6,2.9-10.8c6.9-12.5,23.9-12.5,28.5-12.5c6.9,0,15.2,0.9,21.5,4.6c8.5,5.2,8.6,11.9,8.6,19.6v38
	c0,5.5,0,7.3,3.2,11.6H461c-0.1-1.7-0.4-4.6-0.4-5.6c-3.7,3.1-11.3,7.3-21.2,7.3c-16.2,0-26-10-26-22.4c0-3.6,0.9-6.9,2.3-9.8
	c5.2-10.3,16.2-12.6,23.1-13.9c14.8-3,15.9-3.3,22.2-5.3c0-3.6-0.3-10.9-12.2-10.9c-7.2,0-11,2.3-12.8,4.6c-1.9,2.3-1.7,4.3-1.7,6.3
	L416.6,303.4z M461,318.3c-3.4,1.7-7.3,3-15.1,4.3c-6.2,0.9-14.3,2.3-14.3,9.9c0,5.6,4.7,8.5,11.6,8.5c8.8,0,14.9-4,16.8-8.3
	c1-2.1,1-4.3,1-6.4V318.3z"/>
<path d="M538.7,307.7c-1.3-4.7-6.3-12.2-16.2-12.2c-9.9,0-17.8,7.9-17.8,22.2c0,12.9,6.8,22.4,18.1,22.4c10.9,0,15.1-8.3,17.2-14.1
	l14.8,7.7c-5.6,15.5-19.8,22.4-32.3,22.4c-19.9,0-35.6-15.3-35.6-38c0-22,15.8-38,36.2-38c18.1,0,27.3,12,31,20.4L538.7,307.7z"/>
<path d="M620.7,282.1L602.5,347l-4,14c-4.9,15.6-10.2,22.3-23.5,22.3c-6.2,0-4,0-10.3,0l-0.1-18.4c2.2,0,3.5,0,5.2,0
	c2.9-0.1,5.7-0.5,8.2-2.5c1.9-1.5,3.2-4.6,3.2-6.1L555,282.1h18.5l15.9,53.4l13.6-53.4H620.7z"/>
<path class="st0" d="M409.6,359.9c-7.9,0-14.3,6.4-14.3,14.3c0,7.9,6.4,14.3,14.3,14.3c7.9,0,14.3-6.4,14.3-14.3
	C424,366.3,417.5,359.9,409.6,359.9 M418.7,375.9h-7.5v7.5H408v-7.5h-7.5v-3.2h7.5v-7.5h3.2v7.5h7.5V375.9z"/>
<g>
	<path d="M441.2,366.9c0.6,0.2,1.2,0.5,1.7,0.8c0.5,0.4,0.8,0.8,1.1,1.3s0.4,1.1,0.5,1.7c0,0.5-0.1,1-0.2,1.4
		c-0.1,0.4-0.3,0.8-0.5,1.1c-0.2,0.3-0.4,0.6-0.7,0.9c-0.3,0.2-0.5,0.5-0.8,0.6c0.5,0.1,1,0.2,1.4,0.5c0.4,0.2,0.7,0.5,1,0.9
		c0.2,0.4,0.4,0.8,0.5,1.3s0.2,1,0.2,1.6c0,0.6-0.1,1.1-0.3,1.6c-0.2,0.5-0.6,1-1.1,1.4c-0.5,0.5-1,0.8-1.7,1
		c-0.6,0.2-1.4,0.3-2.3,0.3l-1,0l-5.4,0v-16.8h1h4.3C439.8,366.6,440.5,366.7,441.2,366.9z M436.2,373.7h1.9c0.4,0,0.9,0,1.2-0.1
		c0.4-0.1,0.8-0.2,1.1-0.4c0.3-0.2,0.6-0.5,0.8-0.9c0.2-0.4,0.3-0.9,0.4-1.6c0-0.5-0.1-1-0.2-1.3s-0.4-0.6-0.6-0.8
		c-0.3-0.2-0.6-0.3-1-0.4c-0.4-0.1-0.8-0.1-1.3-0.1l-2.2-0.1V373.7z M436.2,381.7h3.4v0c0.4,0,0.7-0.1,1.1-0.3
		c0.3-0.1,0.7-0.3,1-0.6c0.3-0.2,0.5-0.5,0.7-0.9c0.2-0.4,0.2-0.8,0.2-1.4c0-0.5-0.1-1-0.3-1.4c-0.2-0.4-0.5-0.7-0.9-1
		c-0.4-0.3-0.9-0.5-1.4-0.6c-0.5-0.1-1.1-0.2-1.7-0.2l-2.1,0V381.7z"/>
	<path d="M448.4,366.5h1h1.8v11.6c0,0.6,0.1,1.1,0.3,1.6c0.2,0.5,0.5,0.9,0.9,1.2c0.4,0.3,0.7,0.5,1.1,0.7c0.4,0.2,0.8,0.3,1.2,0.3
		c0.4-0.1,0.8-0.2,1.2-0.3c0.4-0.2,0.7-0.4,1-0.6c0.4-0.3,0.7-0.7,0.9-1.2c0.2-0.5,0.3-1,0.3-1.6v-11.7h1h1.8v11.6
		c0,0.9-0.2,1.7-0.5,2.4c-0.3,0.7-0.8,1.3-1.3,1.8c-0.6,0.5-1.2,0.8-1.9,1.1c-0.6,0.2-1.3,0.4-2.1,0.4h-1h-0.1h0h0h0
		c-0.7,0-1.3-0.1-1.9-0.3c-0.6-0.2-1.2-0.5-1.7-1c-0.6-0.5-1-1-1.3-1.8c-0.3-0.7-0.5-1.6-0.6-2.6v0V366.5z"/>
	<path d="M466.7,380c0.2,0.4,0.4,0.7,0.7,1c0.2,0.2,0.5,0.4,0.8,0.5c0.3,0.1,0.6,0.2,0.8,0.3c0.3,0,0.7-0.1,1-0.3
		c0.3-0.2,0.6-0.3,0.9-0.6c0.3-0.3,0.6-0.6,0.8-1c0.2-0.4,0.3-0.8,0.3-1.2c0-0.1,0-0.2,0-0.3c0-0.1,0-0.2,0-0.3c0-0.1,0-0.2,0-0.3
		c0-0.1-0.1-0.2-0.1-0.3c0,0,0-0.1,0-0.1c0,0,0-0.1,0-0.1c0,0,0,0,0-0.1c0,0,0-0.1,0-0.1c0,0,0-0.1-0.1-0.1c0,0,0-0.1,0-0.1
		c0,0,0,0,0-0.1c0,0,0-0.1-0.1-0.1c-0.1-0.2-0.3-0.4-0.5-0.5c-0.2-0.2-0.4-0.3-0.6-0.4c-0.2-0.1-0.5-0.2-0.8-0.3
		c-0.3-0.1-0.5-0.2-0.8-0.3c0,0-0.1,0-0.1,0c0,0-0.1,0-0.1,0c-0.1,0-0.1,0-0.1,0c0,0-0.1,0-0.1,0c-0.1,0-0.1-0.1-0.2-0.1
		c-0.1,0-0.2,0-0.2-0.1c-0.5-0.2-0.9-0.3-1.4-0.6c-0.5-0.2-0.9-0.5-1.3-0.8c-0.4-0.3-0.7-0.8-0.9-1.3c-0.2-0.6-0.3-1.3-0.3-2.1
		c0-0.6,0.1-1.2,0.4-1.7c0.3-0.5,0.6-0.9,1.1-1.2c0.5-0.3,1-0.6,1.5-0.8c0.5-0.2,1.1-0.3,1.7-0.3l1,0c0.5,0,1,0.1,1.5,0.3
		c0.5,0.2,0.9,0.4,1.2,0.7c0.4,0.3,0.7,0.6,1,1c0.3,0.3,0.5,0.7,0.6,1c0,0.1,0.1,0.2,0.1,0.3c0.1,0.1,0.1,0.2,0.1,0.3
		c0,0.1,0.1,0.2,0.1,0.3c0,0.1,0,0.2,0,0.3v0.2h-1h-1.6c-0.1-0.4-0.2-0.8-0.4-1.2c-0.2-0.3-0.4-0.6-0.6-0.9
		c-0.3-0.2-0.5-0.4-0.8-0.6c-0.3-0.2-0.5-0.3-0.8-0.3h0c-0.3,0.1-0.5,0.1-0.7,0.2c-0.2,0.1-0.5,0.3-0.6,0.4
		c-0.3,0.2-0.5,0.5-0.7,0.8c-0.1,0.3-0.2,0.6-0.3,1l0,0v0l0,0.1v0c0,0.6,0.1,1.1,0.3,1.5c0.2,0.4,0.4,0.7,0.8,0.9
		c0.4,0.2,0.7,0.4,1.1,0.5c0.4,0.2,0.8,0.3,1.3,0.4c0.1,0,0.1,0,0.2,0c0.1,0,0.1,0,0.2,0.1c0.1,0,0.1,0,0.2,0.1c0.1,0,0.1,0,0.2,0
		c0.4,0.1,0.9,0.3,1.3,0.5c0.4,0.2,0.8,0.4,1.2,0.6c0.4,0.2,0.7,0.6,1,1c0.3,0.4,0.5,0.9,0.6,1.5v0.1l0,0.2v0.1l0,0
		c0,0.1,0,0.1,0,0.2c0,0,0,0.1,0,0.1c0,0,0,0,0,0.1c0,0,0,0,0,0.1c0,0,0,0,0,0.1c0,0,0,0,0,0c0,0.1,0,0.1,0,0.2c0,0.1,0,0.1,0,0.1
		c0,0,0,0.1,0,0.2c0,0,0,0.1,0,0.2c0,0,0,0.1,0,0.2c0,0,0,0.1,0,0.1c0,0.1,0,0.1,0,0.2c0,0.1,0,0.1,0,0.2c-0.1,0.5-0.3,0.9-0.6,1.4
		c-0.3,0.5-0.6,0.9-1.1,1.3c-0.4,0.4-0.9,0.7-1.4,0.9c-0.5,0.2-1.1,0.3-1.8,0.3h-1c-0.7,0-1.3-0.1-1.9-0.3c-0.6-0.2-1.1-0.5-1.7-1
		c-0.5-0.5-0.9-1-1.2-1.6c-0.3-0.6-0.5-1.3-0.6-2.1l1.8-0.1h1C466.4,379.1,466.5,379.6,466.7,380z"/>
	<path d="M477.4,383.3v-16.8h1h1.8v16.8h-1H477.4z"/>
	<path d="M484.4,383.3v-16.8h1h2.1l8.7,12.5v-12.5h1h1.6v16.8h-1h-1.8l-8.9-13.2v13.2h-1H484.4z"/>
	<path d="M503.3,366.5h1h9.3v1.6h-7.7v5.9h7.5v1.6h-7.5v6.1h7.7v1.6h-1h-9.3V366.5z"/>
	<path d="M519.5,380c0.2,0.4,0.4,0.7,0.7,1c0.2,0.2,0.5,0.4,0.8,0.5c0.3,0.1,0.6,0.2,0.8,0.3c0.3,0,0.7-0.1,1-0.3
		c0.3-0.2,0.6-0.3,0.9-0.6c0.3-0.3,0.6-0.6,0.8-1c0.2-0.4,0.3-0.8,0.3-1.2c0-0.1,0-0.2,0-0.3c0-0.1,0-0.2,0-0.3c0-0.1,0-0.2,0-0.3
		c0-0.1-0.1-0.2-0.1-0.3c0,0,0-0.1,0-0.1c0,0,0-0.1,0-0.1c0,0,0,0,0-0.1c0,0,0-0.1,0-0.1c0,0,0-0.1-0.1-0.1c0,0,0-0.1,0-0.1
		c0,0,0,0,0-0.1c0,0,0-0.1-0.1-0.1c-0.1-0.2-0.3-0.4-0.5-0.5c-0.2-0.2-0.4-0.3-0.6-0.4c-0.2-0.1-0.5-0.2-0.8-0.3
		c-0.3-0.1-0.5-0.2-0.8-0.3c0,0-0.1,0-0.1,0c0,0-0.1,0-0.1,0c-0.1,0-0.1,0-0.1,0c0,0-0.1,0-0.1,0c-0.1,0-0.1-0.1-0.2-0.1
		c-0.1,0-0.2,0-0.2-0.1c-0.5-0.2-0.9-0.3-1.4-0.6c-0.5-0.2-0.9-0.5-1.3-0.8c-0.4-0.3-0.7-0.8-0.9-1.3c-0.2-0.6-0.3-1.3-0.3-2.1
		c0-0.6,0.1-1.2,0.4-1.7c0.3-0.5,0.6-0.9,1.1-1.2c0.5-0.3,1-0.6,1.5-0.8c0.5-0.2,1.1-0.3,1.7-0.3l1,0c0.5,0,1,0.1,1.5,0.3
		c0.5,0.2,0.9,0.4,1.2,0.7c0.4,0.3,0.7,0.6,1,1c0.3,0.3,0.5,0.7,0.6,1c0,0.1,0.1,0.2,0.1,0.3c0.1,0.1,0.1,0.2,0.1,0.3
		c0,0.1,0.1,0.2,0.1,0.3c0,0.1,0,0.2,0,0.3v0.2h-1h-1.6c-0.1-0.4-0.2-0.8-0.4-1.2c-0.2-0.3-0.4-0.6-0.6-0.9
		c-0.3-0.2-0.5-0.4-0.8-0.6c-0.3-0.2-0.5-0.3-0.8-0.3h0c-0.3,0.1-0.5,0.1-0.7,0.2c-0.2,0.1-0.5,0.3-0.6,0.4
		c-0.3,0.2-0.5,0.5-0.7,0.8c-0.1,0.3-0.2,0.6-0.3,1l0,0v0l0,0.1v0c0,0.6,0.1,1.1,0.3,1.5c0.2,0.4,0.4,0.7,0.8,0.9
		c0.4,0.2,0.7,0.4,1.1,0.5c0.4,0.2,0.8,0.3,1.3,0.4c0.1,0,0.1,0,0.2,0c0.1,0,0.1,0,0.2,0.1c0.1,0,0.1,0,0.2,0.1c0.1,0,0.1,0,0.2,0
		c0.4,0.1,0.9,0.3,1.3,0.5c0.4,0.2,0.8,0.4,1.2,0.6c0.4,0.2,0.7,0.6,1,1c0.3,0.4,0.5,0.9,0.6,1.5v0.1l0,0.2v0.1l0,0
		c0,0.1,0,0.1,0,0.2c0,0,0,0.1,0,0.1c0,0,0,0,0,0.1c0,0,0,0,0,0.1c0,0,0,0,0,0.1c0,0,0,0,0,0c0,0.1,0,0.1,0,0.2c0,0.1,0,0.1,0,0.1
		c0,0,0,0.1,0,0.2c0,0,0,0.1,0,0.2c0,0,0,0.1,0,0.2c0,0,0,0.1,0,0.1c0,0.1,0,0.1,0,0.2c0,0.1,0,0.1,0,0.2c-0.1,0.5-0.3,0.9-0.6,1.4
		c-0.3,0.5-0.6,0.9-1.1,1.3c-0.4,0.4-0.9,0.7-1.4,0.9c-0.5,0.2-1.1,0.3-1.8,0.3h-1c-0.7,0-1.3-0.1-1.9-0.3c-0.6-0.2-1.1-0.5-1.7-1
		c-0.5-0.5-0.9-1-1.2-1.6c-0.3-0.6-0.5-1.3-0.6-2.1l1.8-0.1h1C519.2,379.1,519.3,379.6,519.5,380z"/>
	<path d="M532.2,380c0.2,0.4,0.4,0.7,0.7,1c0.2,0.2,0.5,0.4,0.8,0.5c0.3,0.1,0.6,0.2,0.8,0.3c0.3,0,0.7-0.1,1-0.3
		c0.3-0.2,0.6-0.3,0.9-0.6c0.3-0.3,0.6-0.6,0.8-1c0.2-0.4,0.3-0.8,0.3-1.2c0-0.1,0-0.2,0-0.3c0-0.1,0-0.2,0-0.3c0-0.1,0-0.2,0-0.3
		c0-0.1-0.1-0.2-0.1-0.3c0,0,0-0.1,0-0.1c0,0,0-0.1,0-0.1c0,0,0,0,0-0.1c0,0,0-0.1,0-0.1c0,0,0-0.1-0.1-0.1c0,0,0-0.1,0-0.1
		c0,0,0,0,0-0.1c0,0,0-0.1-0.1-0.1c-0.1-0.2-0.3-0.4-0.5-0.5c-0.2-0.2-0.4-0.3-0.6-0.4c-0.2-0.1-0.5-0.2-0.8-0.3
		c-0.3-0.1-0.5-0.2-0.8-0.3c0,0-0.1,0-0.1,0c0,0-0.1,0-0.1,0c-0.1,0-0.1,0-0.1,0c0,0-0.1,0-0.1,0c-0.1,0-0.1-0.1-0.2-0.1
		c-0.1,0-0.2,0-0.2-0.1c-0.5-0.2-0.9-0.3-1.4-0.6c-0.5-0.2-0.9-0.5-1.3-0.8c-0.4-0.3-0.7-0.8-0.9-1.3c-0.2-0.6-0.3-1.3-0.3-2.1
		c0-0.6,0.1-1.2,0.4-1.7s0.6-0.9,1.1-1.2c0.5-0.3,1-0.6,1.5-0.8c0.5-0.2,1.1-0.3,1.7-0.3l1,0c0.5,0,1,0.1,1.5,0.3
		c0.5,0.2,0.9,0.4,1.2,0.7c0.4,0.3,0.7,0.6,1,1c0.3,0.3,0.5,0.7,0.6,1c0,0.1,0.1,0.2,0.1,0.3c0.1,0.1,0.1,0.2,0.1,0.3
		c0,0.1,0.1,0.2,0.1,0.3c0,0.1,0,0.2,0,0.3v0.2h-1h-1.6c-0.1-0.4-0.2-0.8-0.4-1.2c-0.2-0.3-0.4-0.6-0.6-0.9
		c-0.3-0.2-0.5-0.4-0.8-0.6c-0.3-0.2-0.5-0.3-0.8-0.3h0c-0.3,0.1-0.5,0.1-0.7,0.2c-0.2,0.1-0.5,0.3-0.6,0.4
		c-0.3,0.2-0.5,0.5-0.7,0.8c-0.1,0.3-0.2,0.6-0.3,1l0,0v0l0,0.1v0c0,0.6,0.1,1.1,0.3,1.5c0.2,0.4,0.4,0.7,0.8,0.9
		c0.4,0.2,0.7,0.4,1.1,0.5c0.4,0.2,0.8,0.3,1.3,0.4c0.1,0,0.1,0,0.2,0c0.1,0,0.1,0,0.2,0.1c0.1,0,0.1,0,0.2,0.1c0.1,0,0.1,0,0.2,0
		c0.4,0.1,0.9,0.3,1.3,0.5c0.4,0.2,0.8,0.4,1.2,0.6c0.4,0.2,0.7,0.6,1,1c0.3,0.4,0.5,0.9,0.6,1.5v0.1l0,0.2v0.1l0,0
		c0,0.1,0,0.1,0,0.2c0,0,0,0.1,0,0.1c0,0,0,0,0,0.1c0,0,0,0,0,0.1c0,0,0,0,0,0.1c0,0,0,0,0,0c0,0.1,0,0.1,0,0.2c0,0.1,0,0.1,0,0.1
		c0,0,0,0.1,0,0.2c0,0,0,0.1,0,0.2c0,0,0,0.1,0,0.2c0,0,0,0.1,0,0.1c0,0.1,0,0.1,0,0.2c0,0.1,0,0.1,0,0.2c-0.1,0.5-0.3,0.9-0.6,1.4
		c-0.3,0.5-0.6,0.9-1.1,1.3c-0.4,0.4-0.9,0.7-1.4,0.9c-0.5,0.2-1.1,0.3-1.8,0.3h-1c-0.7,0-1.3-0.1-1.9-0.3c-0.6-0.2-1.1-0.5-1.7-1
		c-0.5-0.5-0.9-1-1.2-1.6c-0.3-0.6-0.5-1.3-0.6-2.1l1.8-0.1h1C531.9,379.1,532,379.6,532.2,380z"/>
</g>
<g>
	<path d="M258.2,366.5h1h4.3c0.9,0,1.7,0.1,2.5,0.3c0.8,0.2,1.5,0.5,2.1,0.8c0.6,0.4,1.1,0.8,1.5,1.5s0.5,1.4,0.6,2.3v0.4
		c0,0.7-0.1,1.4-0.4,2c-0.2,0.6-0.6,1.1-1.1,1.5c-0.5,0.4-1,0.8-1.7,1c-0.6,0.2-1.4,0.3-2.3,0.3l-1,0l-2.9,0v6.8h-1h-1.6V366.5z
		 M260.9,374.9h2.4c0.8,0,1.6,0,2.1-0.2c0.6-0.2,1-0.4,1.3-0.8c0.3-0.3,0.5-0.7,0.6-1.1c0.1-0.4,0.2-0.9,0.2-1.4
		c-0.1-0.6-0.2-1.1-0.4-1.5c-0.2-0.4-0.5-0.7-0.9-1c-0.4-0.2-0.9-0.4-1.3-0.5c-0.5-0.1-1-0.2-1.6-0.2l-2.4-0.1V374.9z"/>
	<path d="M273.2,366.5h1h4.1c1.4,0,2.5,0.2,3.5,0.5c0.9,0.3,1.7,0.7,2.2,1.2c0.5,0.5,0.9,1.1,1.2,1.7c0.3,0.6,0.4,1.2,0.4,1.8v0.1
		v0.1v0.3c-0.1,0.9-0.3,1.6-0.5,2.2c-0.3,0.6-0.6,1.1-1.1,1.5c-0.5,0.4-1,0.7-1.6,0.8c-0.6,0.2-1.3,0.3-2,0.3l4.8,6.4h-1h-2
		l-5.8-7.7c1.2,0,2.2,0,3-0.1c0.8-0.1,1.5-0.3,1.9-0.5c0.5-0.2,0.8-0.6,1.1-1.1c0.3-0.5,0.4-1.1,0.5-1.8v-0.5c0-0.6-0.1-1.2-0.4-1.6
		c-0.3-0.5-0.7-0.8-1.2-1.1c-0.5-0.3-1.1-0.5-1.8-0.6c-0.6-0.1-1.3-0.2-2-0.2l-1.9,0v15.4h-1h-1.6V366.5z"/>
	<path d="M297.4,366.5l7.1,16.8h-1h-1.7l-2.3-5.7h-7.2l-2.3,5.7h-1h-1.8l7.3-16.8h1H297.4z M292.9,376h5.8l-2.9-6.7L292.9,376z"/>
</g>
<g>
	<path d="M311.1,370.6c0.5-0.9,1.2-1.7,2-2.3c0.8-0.6,1.7-1.1,2.6-1.5c0.9-0.4,1.8-0.5,2.8-0.5l1,0h0.1h0.1c0,0,0.1,0,0.1,0
		c0.1,0,0.1,0,0.2,0c0,0,0.1,0,0.1,0s0.1,0,0.1,0c0,0,0,0,0.1,0c0,0,0.1,0,0.1,0c0.7,0.1,1.4,0.2,2,0.4c0.7,0.2,1.3,0.5,1.9,0.9
		c0.6,0.4,1.2,0.8,1.7,1.4c0.5,0.6,1,1.2,1.4,2l-1,0l-2,0c-0.3-0.5-0.6-1-1-1.4c-0.4-0.4-0.8-0.7-1.3-1c-0.4-0.2-0.9-0.4-1.3-0.5
		c-0.5-0.1-0.9-0.2-1.3-0.2c-0.8,0.1-1.6,0.3-2.4,0.6c-0.8,0.3-1.5,0.8-2.2,1.4c-0.7,0.6-1.2,1.3-1.6,2.2c-0.4,0.8-0.5,1.7-0.5,2.8
		c0,1.2,0.2,2.3,0.6,3.2c0.3,0.9,0.9,1.6,1.5,2.2c0.6,0.5,1.3,0.9,2,1.2c0.7,0.3,1.4,0.4,2.1,0.5h0c0.6,0,1.1-0.1,1.7-0.3
		c0.5-0.1,1.1-0.3,1.6-0.6c0.5-0.2,1-0.5,1.4-0.8c0.4-0.3,0.7-0.7,1-1.1l2-0.1h1c-0.4,0.7-0.9,1.3-1.4,1.8c-0.5,0.5-1.1,1-1.7,1.3
		c-0.6,0.4-1.2,0.6-1.9,0.8s-1.3,0.3-1.9,0.4c0,0-0.1,0-0.1,0c-0.1,0-0.1,0-0.1,0c-0.1,0-0.1,0-0.1,0c0,0-0.1,0-0.1,0
		c0,0-0.1,0-0.1,0c0,0-0.1,0-0.1,0c-0.1,0-0.1,0-0.1,0c0,0-0.1,0-0.1,0h-1c-1.1,0-2.2-0.2-3.2-0.6c-1-0.4-2-0.9-2.9-1.7
		c-0.9-0.8-1.6-1.7-2.1-2.7c-0.5-1.1-0.7-2.3-0.7-3.6c0,0,0-0.1,0-0.1s0-0.1,0-0.2s0-0.1,0-0.2c0-0.1,0-0.1,0-0.2c0,0,0,0,0-0.1
		c0,0,0,0,0-0.1c0,0,0-0.1,0-0.1c0,0,0,0,0-0.1c0,0,0-0.1,0-0.1c0,0,0,0,0-0.1c0,0,0,0,0-0.1c0,0,0,0,0-0.1v0
		C310.2,372.5,310.6,371.5,311.1,370.6z"/>
	<path d="M333,368h-3.9v-1.4h1h9.5v1.4h-4v15.4h-1H333V368z"/>
	<path d="M342.3,383.3v-16.8h1h1.8v16.8h-1H342.3z"/>
	<path d="M349.7,370.6c0.5-0.9,1.2-1.7,2-2.3c0.8-0.6,1.7-1.1,2.6-1.5c0.9-0.4,1.8-0.5,2.8-0.5l1,0h0.1h0.1c0,0,0.1,0,0.1,0
		s0.1,0,0.2,0c0,0,0.1,0,0.1,0c0,0,0.1,0,0.1,0c0,0,0,0,0.1,0c0,0,0.1,0,0.1,0c0.7,0.1,1.4,0.2,2,0.4c0.7,0.2,1.3,0.5,1.9,0.9
		c0.6,0.4,1.2,0.8,1.7,1.4c0.5,0.6,1,1.2,1.4,2l-1,0l-2,0c-0.3-0.5-0.6-1-1-1.4c-0.4-0.4-0.8-0.7-1.3-1c-0.4-0.2-0.9-0.4-1.3-0.5
		c-0.5-0.1-0.9-0.2-1.3-0.2c-0.8,0.1-1.6,0.3-2.4,0.6c-0.8,0.3-1.5,0.8-2.2,1.4c-0.7,0.6-1.2,1.3-1.6,2.2c-0.4,0.8-0.5,1.7-0.5,2.8
		c0,1.2,0.2,2.3,0.6,3.2c0.3,0.9,0.9,1.6,1.5,2.2c0.6,0.5,1.3,0.9,2,1.2c0.7,0.3,1.4,0.4,2.1,0.5h0c0.6,0,1.1-0.1,1.7-0.3
		c0.5-0.1,1.1-0.3,1.6-0.6c0.5-0.2,1-0.5,1.4-0.8c0.4-0.3,0.7-0.7,1-1.1l2-0.1h1c-0.4,0.7-0.9,1.3-1.4,1.8c-0.5,0.5-1.1,1-1.7,1.3
		c-0.6,0.4-1.2,0.6-1.9,0.8s-1.3,0.3-1.9,0.4c0,0-0.1,0-0.1,0c-0.1,0-0.1,0-0.1,0c-0.1,0-0.1,0-0.1,0c0,0-0.1,0-0.1,0
		c0,0-0.1,0-0.1,0c0,0-0.1,0-0.1,0c-0.1,0-0.1,0-0.1,0c0,0-0.1,0-0.1,0h-1c-1.1,0-2.2-0.2-3.2-0.6c-1-0.4-2-0.9-2.9-1.7
		c-0.9-0.8-1.6-1.7-2.1-2.7c-0.5-1.1-0.7-2.3-0.7-3.6c0,0,0-0.1,0-0.1s0-0.1,0-0.2s0-0.1,0-0.2c0-0.1,0-0.1,0-0.2c0,0,0,0,0-0.1
		c0,0,0,0,0-0.1c0,0,0-0.1,0-0.1c0,0,0,0,0-0.1c0,0,0-0.1,0-0.1c0,0,0,0,0-0.1c0,0,0,0,0-0.1c0,0,0,0,0-0.1v0
		C348.8,372.5,349.2,371.5,349.7,370.6z"/>
	<path d="M369.2,366.5h1h9.3v1.6h-7.7v5.9h7.5v1.6h-7.5v6.1h7.7v1.6h-1h-9.3V366.5z"/>
</g>
</svg>
